<?xml version="1.0" encoding="utf-8"?>
<!-- Generator: Adobe Illustrator 26.3.1, SVG Export Plug-In . SVG Version: 6.00 Build 0)  -->
<svg version="1.1" id="Layer_1" xmlns="http://www.w3.org/2000/svg" xmlns:xlink="http://www.w3.org/1999/xlink" x="0px" y="0px"
	 viewBox="0 0 220 65" style="enable-background:new 0 0 220 65;" xml:space="preserve">
<style type="text/css">
	.st0{fill:#AB1F25;}
	.st1{fill:#FFFFFF;}
	.st2{fill:none;}
</style>
<polygon class="st0" points="219.2,61.7 219.2,64.1 0.8,64.1 0.8,4.7 60.2,4.7 60.2,61.7 "/>
<path class="st1" d="M35.3,18.7h0.3c4.2,0.1,4.7,3.2,4.7,3.2V48L25.1,15.4H8.7l0.1,3.4c4.7,0,5,3.5,5,3.5v26.5
	c0,3.6-5.1,3.5-5.1,3.5v3.5h17.2v-3.3c-4.2,0-5.5-2.8-5.5-2.8V23l15.5,32.9H47V22c0-3.3,5-3.2,5-3.2v-3.3H35.3L35.3,18.7L35.3,18.7z
	"/>
<rect x="100.8" y="25.9" class="st2" width="4.6" height="27.6"/>
<polygon class="st2" points="135.7,26 131,26 131,38.6 133.5,38.6 133.5,41 131,41 131,53.7 135.7,53.7 "/>
<rect x="163.1" y="25.9" class="st2" width="4.4" height="17.3"/>
<polygon class="st2" points="68.7,26.1 68.7,53.5 73.2,53.5 73.2,41.5 70.6,41.5 70.6,38.1 70.2,38.1 70.2,33.4 73.2,33.4 
	73.2,26.1 "/>
<path class="st0" d="M70.7,56.7c2.6,0,5.1-1.2,6.7-3.2V38.1h-4.3v15.5h-4.5V26.1h4.5v7.3h4.3v-6.5c-1.3-2.4-3.9-3.9-6.6-3.8
	c-2.7-0.1-5.3,1.4-6.5,3.8v26.6C65.8,55.5,68.2,56.7,70.7,56.7z"/>
<rect x="70.6" y="38.1" class="st0" width="2.6" height="3.4"/>
<path class="st0" d="M103.1,56.4c5.5,0,6.5-3.4,6.5-3.4V26.7c1.2-1.1,2-2.6,2.3-4.1c0-1.2-0.9-2.2-2.1-2.3c-1.2,0-2.2,0.9-2.3,2.1
	c0,1,0.6,1.9,1.6,2.2c0.1,0,0,0.4-0.2,0.7c-1.6-1.6-3.7-2.4-5.9-2.4c-2.6-0.1-5,1.1-6.6,3.1V53C96.5,53,97.7,56.4,103.1,56.4z
	 M100.8,25.9h4.6v27.7h-4.6V25.9z"/>
<rect x="113.3" y="23" class="st0" width="4.4" height="33.4"/>
<rect x="195.7" y="23" class="st0" width="4.4" height="33.4"/>
<polygon class="st0" points="184.9,56.4 189.3,56.4 189.3,25.9 193.9,25.9 193.9,23 189.3,23 184.9,23 180.5,23 180.5,25.9 
	184.9,25.9 "/>
<path class="st0" d="M126.5,56.4h9.3c0,0,0.8,0.1,2.2-1.4c0.8-0.7,1.3-1.5,1.5-2.5V27.2c0.1-0.9-0.3-1.8-1-2.4
	c-0.8-0.8-1.8-1.4-2.9-1.7h-9.1v15.4h-1.7V41h1.7L126.5,56.4L126.5,56.4z M131,41h2.5v-2.4H131V26h4.6v27.7H131L131,41z"/>
<path class="st0" d="M207,26h4.8v30.4h4v-29c0-1.4-2.6-4.4-3.7-4.4h-9.4v33.4h4.2L207,26L207,26z"/>
<path class="st0" d="M163.1,46.2h4.4v10.1h4.3V26.7c-1.4-2.4-3.9-3.8-6.6-3.7c-2.6-0.1-5.1,1.3-6.3,3.7v29.7h4.1L163.1,46.2
	L163.1,46.2z M163.1,25.9h4.4v17.3h-4.4L163.1,25.9z"/>
<rect x="102.5" y="12.5" transform="matrix(0.7071 -0.7071 0.7071 0.7071 18.815 77.9294)" class="st0" width="2" height="7.4"/>
<path class="st0" d="M93.4,23.2H89v30.4h-4.8V23.1h-4.2v29.7c0,0,0.4,3.7,6.4,3.7s6.9-3.7,6.9-3.7v-26l0,0L93.4,23.2z"/>
<path class="st0" d="M93.5,20.3c-1.2-0.1-2.2,0.8-2.2,2c-0.1,1,0.6,2,1.7,2.2c0.1,0,0,0.3-0.2,0.6c0.1,0.5,0.2,0.9,0.3,1.4h0.4
	c1.1-1.1,1.9-2.5,2.2-4.1C95.7,21.2,94.7,20.3,93.5,20.3C93.5,20.3,93.5,20.3,93.5,20.3z"/>
<path class="st0" d="M155.7,23.2h-4.4v30.4h-4.8V23.1h-4.2v29.7c0,0,0.4,3.7,6.4,3.7s6.9-3.7,6.9-3.7V26.9l0,0V23.2z"/>
<path class="st0" d="M155.7,20.3c-1.2-0.1-2.2,0.8-2.2,2c-0.1,1,0.6,2,1.7,2.2c0.1,0,0,0.3-0.2,0.6c0.1,0.5,0.2,0.9,0.3,1.4h0.4
	c1.1-1.1,1.9-2.5,2.2-4.1C157.9,21.3,156.9,20.3,155.7,20.3C155.7,20.3,155.7,20.3,155.7,20.3z"/>
<rect x="126.2" y="0.9" class="st0" width="90.8" height="15.4"/>
<path class="st1" d="M135.2,6.4h-2.4v6.5h-1.6V6.4h-2.4V5.1h6.4L135.2,6.4L135.2,6.4z"/>
<path class="st1" d="M139.9,11.3H137l-0.5,1.6h-1.7l2.9-7.8h1.5l2.9,7.8h-1.7L139.9,11.3z M137.5,10h2l-1-2.9L137.5,10z M137.6,14.1
	c0-0.2,0.1-0.4,0.2-0.5c0.4-0.3,0.9-0.3,1.2,0c0.3,0.3,0.3,0.7,0.1,1c0,0,0,0-0.1,0.1c-0.4,0.3-0.9,0.3-1.3,0
	C137.7,14.5,137.6,14.3,137.6,14.1L137.6,14.1z"/>
<path class="st1" d="M144.5,10.2v2.8h-1.6V5.1h3c0.5,0,1.1,0.1,1.5,0.3c0.4,0.2,0.8,0.5,1,0.9c0.2,0.4,0.4,0.9,0.4,1.3
	c0,0.7-0.3,1.4-0.8,1.8c-0.6,0.5-1.4,0.7-2.2,0.7L144.5,10.2z M144.5,8.9h1.4c0.4,0,0.7-0.1,1-0.3c0.2-0.2,0.4-0.5,0.3-0.9
	c0-0.3-0.1-0.7-0.3-0.9c-0.2-0.2-0.6-0.4-0.9-0.4h-1.5V8.9z"/>
<path class="st1" d="M158.8,10.3c0,0.8-0.4,1.5-0.9,2c-0.6,0.5-1.4,0.8-2.2,0.7c-0.9,0-1.8-0.3-2.4-1c-0.6-0.8-0.9-1.8-0.9-2.8V8.8
	c0-0.7,0.1-1.4,0.4-2c0.2-0.5,0.6-1,1.1-1.3c1.2-0.7,2.8-0.6,3.9,0.3c0.6,0.5,0.9,1.2,1,2h-1.6c0-0.4-0.2-0.8-0.4-1.1
	c-0.3-0.3-0.7-0.4-1.1-0.3c-0.5,0-0.9,0.2-1.2,0.6c-0.3,0.5-0.4,1.2-0.4,1.8v0.6c0,0.6,0.1,1.3,0.4,1.8c0.3,0.4,0.7,0.6,1.2,0.6
	c0.4,0,0.8-0.1,1.1-0.3c0.3-0.3,0.4-0.7,0.4-1.1L158.8,10.3L158.8,10.3z"/>
<path class="st1" d="M166.2,12.9h-1.6V9.5h-3.1v3.4h-1.6V5.1h1.6v3.2h3.1V5.1h1.6V12.9z"/>
<path class="st1" d="M169.4,12.9h-1.6V5.1h1.6V12.9z M168.9,3h1.7l-1.5,1.7h-1.3L168.9,3z"/>
<path class="st1" d="M173.8,12.9V9.5h-1v-1h1V5.1h2.4c0.6,0,1.3,0.1,1.8,0.5c0.5,0.3,1,0.8,1.3,1.3c0.3,0.6,0.5,1.3,0.5,2v0.4
	c0,0.7-0.1,1.3-0.5,1.9c-0.3,0.6-0.7,1-1.3,1.3c-0.6,0.3-1.2,0.5-1.8,0.5L173.8,12.9z M176.5,9.5h-1.2v2.1h0.8
	c0.6,0,1.1-0.2,1.5-0.6c0.4-0.5,0.5-1.2,0.5-1.8V8.8c0-0.6-0.1-1.3-0.5-1.8c-0.4-0.4-0.9-0.6-1.5-0.6h-0.8v2.1h1.2L176.5,9.5
	L176.5,9.5z"/>
<path class="st1" d="M182.6,12.9H181V5.1h1.6V12.9z"/>
<path class="st1" d="M188.8,9.5h-3.1v2.1h3.6v1.3h-5.2V5.1h5.2v1.3h-3.6v1.9h3.1L188.8,9.5L188.8,9.5z M188.9,4.5L188.9,4.5h-1.2
	l-0.8-0.8L186,4.5h-1.2V4.5l1.6-1.5h0.9L188.9,4.5z M186,14.2c0-0.2,0.1-0.4,0.2-0.5c0.4-0.3,0.9-0.3,1.2,0c0.3,0.3,0.3,0.7,0.1,1
	c0,0,0,0-0.1,0.1c-0.4,0.3-0.9,0.3-1.3,0C186,14.6,185.9,14.3,186,14.2L186,14.2z"/>
<path class="st1" d="M196.7,12.9h-1.6l-3.1-5.2v5.2h-1.6V5.1h1.6l3.1,5.2V5.1h1.6V12.9z"/>
<path class="st1" d="M206.4,6.4H204v6.5h-1.6V6.4H200V5.1h6.4L206.4,6.4L206.4,6.4z"/>
<path class="st1" d="M213.2,5.1v1.2c0.2,0,0.4-0.1,0.6-0.2c0.2-0.1,0.3-0.3,0.3-0.5c0.1-0.3,0.1-0.7,0.1-1h1
	c0.1,0.7-0.1,1.3-0.5,1.9c-0.4,0.4-1,0.7-1.6,0.6v3.1c0,0.7-0.3,1.5-0.8,2c-1.3,1-3.1,1-4.4,0c-0.5-0.5-0.8-1.2-0.8-2V5h1.6v5.2
	c0,0.4,0.1,0.8,0.4,1.1c0.3,0.2,0.6,0.4,1,0.4c0.9,0,1.4-0.5,1.4-1.4V5L213.2,5.1L213.2,5.1z M209.8,4.4l-0.1-0.7
	c0.2,0,0.4,0,0.6-0.1c0.1,0,0.2-0.1,0.2-0.2c0-0.2-0.2-0.4-0.8-0.4V2.2c0.5,0,1,0.1,1.5,0.3c0.3,0.1,0.5,0.4,0.5,0.8
	c0,0.2-0.1,0.4-0.2,0.5c-0.2,0.1-0.4,0.2-0.6,0.3v0.3L209.8,4.4z"/>
</svg>
